<?xml version="1.0" encoding="utf-8"?><svg xmlns="http://www.w3.org/2000/svg" xmlns:xlink="http://www.w3.org/1999/xlink" width="1920" height="981" preserveAspectRatio="xMidYMid" viewBox="0 0 1920 981" style="z-index:1;display:block;background-color:rgb(241, 242, 243);animation-play-state:paused" ><g transform="" style="animation-play-state:paused" ><g id="bk-0.05428145726670619" style="animation-play-state:paused" ><path d="M985 415L1199 447L1058 290z" stroke="#dfaa72" fill="#dfaa72" style="animation-play-state:paused" ></path>
<path d="M985 415L1126 564L1199 447z" stroke="#da965b" fill="#da965b" style="animation-play-state:paused" ></path>
<path d="M1199 447L1171 246L1058 290z" stroke="#e1b681" fill="#e1b681" style="animation-play-state:paused" ></path>
<path d="M1171 246L1153 204L1058 290z" stroke="#e6c797" fill="#e6c797" style="animation-play-state:paused" ></path>
<path d="M985 415L1033 666L1126 564z" stroke="#d2874e" fill="#d2874e" style="animation-play-state:paused" ></path>
<path d="M1058 290L808 430L985 415z" stroke="#dfac73" fill="#dfac73" style="animation-play-state:paused" ></path>
<path d="M985 415L907 708L1033 666z" stroke="#c77e49" fill="#c77e49" style="animation-play-state:paused" ></path>
<path d="M813 64L808 430L1058 290z" stroke="#e5c493" fill="#e5c493" style="animation-play-state:paused" ></path>
<path d="M1386 259L1281 151L1171 246z" stroke="#e8cda0" fill="#e8cda0" style="animation-play-state:paused" ></path>
<path d="M1171 246L1281 151L1153 204z" stroke="#e9d0a5" fill="#e9d0a5" style="animation-play-state:paused" ></path>
<path d="M1488 576L1386 259L1199 447z" stroke="#dca167" fill="#dca167" style="animation-play-state:paused" ></path>
<path d="M1199 447L1386 259L1171 246z" stroke="#e2b983" fill="#e2b983" style="animation-play-state:paused" ></path>
<path d="M808 430L907 708L985 415z" stroke="#d88d52" fill="#d88d52" style="animation-play-state:paused" ></path>
<path d="M1033 666L1310 739L1126 564z" stroke="#b97342" fill="#b97342" style="animation-play-state:paused" ></path>
<path d="M1126 564L1310 739L1199 447z" stroke="#ca804a" fill="#ca804a" style="animation-play-state:paused" ></path>
<path d="M1082 890L1310 739L1033 666z" stroke="#a16037" fill="#a16037" style="animation-play-state:paused" ></path>
<path d="M680 297L680 484L808 430z" stroke="#dea66d" fill="#dea66d" style="animation-play-state:paused" ></path>
<path d="M808 430L680 484L907 708z" stroke="#d3884f" fill="#d3884f" style="animation-play-state:paused" ></path>
<path d="M1057 -39L813 64L1153 204z" stroke="#f3e7ca" fill="#f3e7ca" style="animation-play-state:paused" ></path>
<path d="M1153 204L813 64L1058 290z" stroke="#ebd3a9" fill="#ebd3a9" style="animation-play-state:paused" ></path>
<path d="M813 64L680 297L808 430z" stroke="#e5c492" fill="#e5c492" style="animation-play-state:paused" ></path>
<path d="M1310 739L1488 576L1199 447z" stroke="#c9804a" fill="#c9804a" style="animation-play-state:paused" ></path>
<path d="M1281 151L1057 -39L1153 204z" stroke="#f1e3c2" fill="#f1e3c2" style="animation-play-state:paused" ></path>
<path d="M855 -87L809 68L813 64z" stroke="#f7e9d0" fill="#f7e9d0" style="animation-play-state:paused" ></path>
<path d="M813 64L674 113L680 297z" stroke="#edd9b2" fill="#edd9b2" style="animation-play-state:paused" ></path>
<path d="M1606 487L1535 223L1386 259z" stroke="#e2b782" fill="#e2b782" style="animation-play-state:paused" ></path>
<path d="M1556 81L1463 -21L1281 151z" stroke="#f4e7ca" fill="#f4e7ca" style="animation-play-state:paused" ></path>
<path d="M1281 151L1197 -107L1057 -39z" stroke="#f7ead1" fill="#f7ead1" style="animation-play-state:paused" ></path>
<path d="M680 484L764 787L907 708z" stroke="#b97242" fill="#b97242" style="animation-play-state:paused" ></path>
<path d="M907 708L1082 890L1033 666z" stroke="#a36238" fill="#a36238" style="animation-play-state:paused" ></path>
<path d="M1310 739L1471 735L1488 576z" stroke="#b36e40" fill="#b36e40" style="animation-play-state:paused" ></path>
<path d="M809 68L674 113L813 64z" stroke="#f3e7c9" fill="#f3e7c9" style="animation-play-state:paused" ></path>
<path d="M977 991L1082 890L907 708z" stroke="#8b4f2d" fill="#8b4f2d" style="animation-play-state:paused" ></path>
<path d="M1310 739L1491 917L1471 735z" stroke="#9a5a34" fill="#9a5a34" style="animation-play-state:paused" ></path>
<path d="M680 297L609 397L680 484z" stroke="#dea96f" fill="#dea96f" style="animation-play-state:paused" ></path>
<path d="M602 775L706 895L764 787z" stroke="#955731" fill="#955731" style="animation-play-state:paused" ></path>
<path d="M615 236L609 397L680 297z" stroke="#e2ba85" fill="#e2ba85" style="animation-play-state:paused" ></path>
<path d="M1640 708L1606 487L1488 576z" stroke="#c87f49" fill="#c87f49" style="animation-play-state:paused" ></path>
<path d="M1488 576L1606 487L1386 259z" stroke="#dc9e63" fill="#dc9e63" style="animation-play-state:paused" ></path>
<path d="M674 113L615 236L680 297z" stroke="#e8cda1" fill="#e8cda1" style="animation-play-state:paused" ></path>
<path d="M1463 -21L1197 -107L1281 151z" stroke="#f7ead1" fill="#f7ead1" style="animation-play-state:paused" ></path>
<path d="M1057 -39L855 -87L813 64z" stroke="#f8ebd4" fill="#f8ebd4" style="animation-play-state:paused" ></path>
<path d="M1040 -265L855 -87L1057 -39z" stroke="#fcefdf" fill="#fcefdf" style="animation-play-state:paused" ></path>
<path d="M809 68L562 -10L674 113z" stroke="#f5e8cc" fill="#f5e8cc" style="animation-play-state:paused" ></path>
<path d="M1556 81L1281 151L1386 259z" stroke="#ecd8b0" fill="#ecd8b0" style="animation-play-state:paused" ></path>
<path d="M1535 223L1556 81L1386 259z" stroke="#ead3a9" fill="#ead3a9" style="animation-play-state:paused" ></path>
<path d="M1771 275L1556 81L1535 223z" stroke="#ead2a7" fill="#ead2a7" style="animation-play-state:paused" ></path>
<path d="M764 787L977 991L907 708z" stroke="#935530" fill="#935530" style="animation-play-state:paused" ></path>
<path d="M1491 917L1640 708L1471 735z" stroke="#9c5c35" fill="#9c5c35" style="animation-play-state:paused" ></path>
<path d="M1845 537L1712 401L1606 487z" stroke="#da965b" fill="#da965b" style="animation-play-state:paused" ></path>
<path d="M1606 487L1712 401L1535 223z" stroke="#dfad75" fill="#dfad75" style="animation-play-state:paused" ></path>
<path d="M1463 -21L1332 -162L1197 -107z" stroke="#fbeddc" fill="#fbeddc" style="animation-play-state:paused" ></path>
<path d="M1197 -107L1040 -265L1057 -39z" stroke="#fcefe0" fill="#fcefe0" style="animation-play-state:paused" ></path>
<path d="M1541 -166L1332 -162L1463 -21z" stroke="#fceede" fill="#fceede" style="animation-play-state:paused" ></path>
<path d="M602 775L764 787L680 484z" stroke="#b46f40" fill="#b46f40" style="animation-play-state:paused" ></path>
<path d="M764 787L706 895L977 991z" stroke="#854b2a" fill="#854b2a" style="animation-play-state:paused" ></path>
<path d="M441 437L602 775L680 484z" stroke="#ce844c" fill="#ce844c" style="animation-play-state:paused" ></path>
<path d="M1371 1001L1310 739L1082 890z" stroke="#884d2b" fill="#884d2b" style="animation-play-state:paused" ></path>
<path d="M1471 735L1640 708L1488 576z" stroke="#b67041" fill="#b67041" style="animation-play-state:paused" ></path>
<path d="M1081 1061L1371 1001L1082 890z" stroke="#713c22" fill="#713c22" style="animation-play-state:paused" ></path>
<path d="M1371 1001L1491 917L1310 739z" stroke="#864c2a" fill="#864c2a" style="animation-play-state:paused" ></path>
<path d="M615 236L441 437L609 397z" stroke="#e0b079" fill="#e0b079" style="animation-play-state:paused" ></path>
<path d="M609 397L441 437L680 484z" stroke="#dc9e64" fill="#dc9e64" style="animation-play-state:paused" ></path>
<path d="M368 188L441 437L615 236z" stroke="#e4bf8c" fill="#e4bf8c" style="animation-play-state:paused" ></path>
<path d="M916 1125L1081 1061L977 991z" stroke="#623320" fill="#623320" style="animation-play-state:paused" ></path>
<path d="M977 991L1081 1061L1082 890z" stroke="#723d22" fill="#723d22" style="animation-play-state:paused" ></path>
<path d="M1332 -162L1040 -265L1197 -107z" stroke="#fdf1e4" fill="#fdf1e4" style="animation-play-state:paused" ></path>
<path d="M855 -87L562 -10L809 68z" stroke="#f8ead3" fill="#f8ead3" style="animation-play-state:paused" ></path>
<path d="M674 113L562 -10L615 236z" stroke="#f0e2c0" fill="#f0e2c0" style="animation-play-state:paused" ></path>
<path d="M672 -274L562 -10L855 -87z" stroke="#fcefde" fill="#fcefde" style="animation-play-state:paused" ></path>
<path d="M1845 537L1771 275L1712 401z" stroke="#dda66c" fill="#dda66c" style="animation-play-state:paused" ></path>
<path d="M1712 401L1771 275L1535 223z" stroke="#e3bc88" fill="#e3bc88" style="animation-play-state:paused" ></path>
<path d="M1897 3L1592 -74L1556 81z" stroke="#f7ead1" fill="#f7ead1" style="animation-play-state:paused" ></path>
<path d="M1556 81L1592 -74L1463 -21z" stroke="#f8ead2" fill="#f8ead2" style="animation-play-state:paused" ></path>
<path d="M1592 -74L1541 -166L1463 -21z" stroke="#fbeddb" fill="#fbeddb" style="animation-play-state:paused" ></path>
<path d="M1332 -162L1609 -269L1040 -265z" stroke="#fef3e9" fill="#fef3e9" style="animation-play-state:paused" ></path>
<path d="M706 895L916 1125L977 991z" stroke="#6d3a22" fill="#6d3a22" style="animation-play-state:paused" ></path>
<path d="M1081 1061L1313 1133L1371 1001z" stroke="#603220" fill="#603220" style="animation-play-state:paused" ></path>
<path d="M562 -10L368 188L615 236z" stroke="#eeddb8" fill="#eeddb8" style="animation-play-state:paused" ></path>
<path d="M602 775L585 953L706 895z" stroke="#894d2b" fill="#894d2b" style="animation-play-state:paused" ></path>
<path d="M706 895L680 1056L916 1125z" stroke="#693721" fill="#693721" style="animation-play-state:paused" ></path>
<path d="M483 1041L585 953L362 935z" stroke="#733d23" fill="#733d23" style="animation-play-state:paused" ></path>
<path d="M1080 1241L1313 1133L1081 1061z" stroke="#50281d" fill="#50281d" style="animation-play-state:paused" ></path>
<path d="M1371 1001L1449 1088L1491 917z" stroke="#6e3a22" fill="#6e3a22" style="animation-play-state:paused" ></path>
<path d="M1874 729L1845 537L1640 708z" stroke="#b97342" fill="#b97342" style="animation-play-state:paused" ></path>
<path d="M585 953L680 1056L706 895z" stroke="#753e23" fill="#753e23" style="animation-play-state:paused" ></path>
<path d="M1040 -265L794 -314L855 -87z" stroke="#fef3e8" fill="#fef3e8" style="animation-play-state:paused" ></path>
<path d="M562 -10L370 -1L368 188z" stroke="#f4e8cc" fill="#f4e8cc" style="animation-play-state:paused" ></path>
<path d="M1707 958L1640 708L1491 917z" stroke="#8c502d" fill="#8c502d" style="animation-play-state:paused" ></path>
<path d="M1640 708L1845 537L1606 487z" stroke="#cb814b" fill="#cb814b" style="animation-play-state:paused" ></path>
<path d="M2001 122L1830 155L1771 275z" stroke="#ebd4aa" fill="#ebd4aa" style="animation-play-state:paused" ></path>
<path d="M1771 275L1830 155L1556 81z" stroke="#ecd6ae" fill="#ecd6ae" style="animation-play-state:paused" ></path>
<path d="M1313 1133L1449 1088L1371 1001z" stroke="#5f3120" fill="#5f3120" style="animation-play-state:paused" ></path>
<path d="M255 274L316 515L441 437z" stroke="#dda56b" fill="#dda56b" style="animation-play-state:paused" ></path>
<path d="M441 437L290 680L602 775z" stroke="#bf7845" fill="#bf7845" style="animation-play-state:paused" ></path>
<path d="M794 -314L672 -274L855 -87z" stroke="#fef3e9" fill="#fef3e9" style="animation-play-state:paused" ></path>
<path d="M1449 1088L1707 958L1491 917z" stroke="#713c22" fill="#713c22" style="animation-play-state:paused" ></path>
<path d="M316 515L290 680L441 437z" stroke="#d3884e" fill="#d3884e" style="animation-play-state:paused" ></path>
<path d="M585 953L483 1041L680 1056z" stroke="#6b3822" fill="#6b3822" style="animation-play-state:paused" ></path>
<path d="M512 -249L370 -1L562 -10z" stroke="#fbedda" fill="#fbedda" style="animation-play-state:paused" ></path>
<path d="M368 188L255 274L441 437z" stroke="#e3bc88" fill="#e3bc88" style="animation-play-state:paused" ></path>
<path d="M202 197L255 274L368 188z" stroke="#e8cd9f" fill="#e8cd9f" style="animation-play-state:paused" ></path>
<path d="M316 515L116 665L290 680z" stroke="#c27a46" fill="#c27a46" style="animation-play-state:paused" ></path>
<path d="M1832 887L1874 729L1640 708z" stroke="#9f5e36" fill="#9f5e36" style="animation-play-state:paused" ></path>
<path d="M1749 -303L1609 -269L1592 -74z" stroke="#fef2e8" fill="#fef2e8" style="animation-play-state:paused" ></path>
<path d="M1592 -74L1609 -269L1541 -166z" stroke="#fdf0e3" fill="#fdf0e3" style="animation-play-state:paused" ></path>
<path d="M1541 -166L1609 -269L1332 -162z" stroke="#fef2e6" fill="#fef2e6" style="animation-play-state:paused" ></path>
<path d="M1040 -265L1749 -303L794 -314z" stroke="#fff6ef" fill="#fff6ef" style="animation-play-state:paused" ></path>
<path d="M958 1337L1080 1241L916 1125z" stroke="#3d1f18" fill="#3d1f18" style="animation-play-state:paused" ></path>
<path d="M916 1125L1080 1241L1081 1061z" stroke="#50291d" fill="#50291d" style="animation-play-state:paused" ></path>
<path d="M1740 1164L1707 958L1449 1088z" stroke="#5f3120" fill="#5f3120" style="animation-play-state:paused" ></path>
<path d="M1707 958L1832 887L1640 708z" stroke="#8e512e" fill="#8e512e" style="animation-play-state:paused" ></path>
<path d="M2001 122L1897 3L1830 155z" stroke="#f2e5c6" fill="#f2e5c6" style="animation-play-state:paused" ></path>
<path d="M1830 155L1897 3L1556 81z" stroke="#f3e7c9" fill="#f3e7c9" style="animation-play-state:paused" ></path>
<path d="M2001 122L1771 275L2080 397z" stroke="#e5c392" fill="#e5c392" style="animation-play-state:paused" ></path>
<path d="M672 -274L512 -249L562 -10z" stroke="#fdf1e4" fill="#fdf1e4" style="animation-play-state:paused" ></path>
<path d="M254 -293L512 -249L672 -274z" stroke="#fff5ed" fill="#fff5ed" style="animation-play-state:paused" ></path>
<path d="M362 935L585 953L602 775z" stroke="#864b2a" fill="#864b2a" style="animation-play-state:paused" ></path>
<path d="M680 1056L631 1183L916 1125z" stroke="#552b1e" fill="#552b1e" style="animation-play-state:paused" ></path>
<path d="M290 680L362 935L602 775z" stroke="#9a5b34" fill="#9a5b34" style="animation-play-state:paused" ></path>
<path d="M202 197L176 381L255 274z" stroke="#e4bf8d" fill="#e4bf8d" style="animation-play-state:paused" ></path>
<path d="M255 274L176 381L316 515z" stroke="#dea970" fill="#dea970" style="animation-play-state:paused" ></path>
<path d="M149 889L313 1059L362 935z" stroke="#763f23" fill="#763f23" style="animation-play-state:paused" ></path>
<path d="M483 1041L631 1183L680 1056z" stroke="#5b2f1f" fill="#5b2f1f" style="animation-play-state:paused" ></path>
<path d="M370 -1L202 197L368 188z" stroke="#efdfbb" fill="#efdfbb" style="animation-play-state:paused" ></path>
<path d="M154 -29L202 197L370 -1z" stroke="#f5e8cc" fill="#f5e8cc" style="animation-play-state:paused" ></path>
<path d="M631 1183L958 1337L916 1125z" stroke="#412119" fill="#412119" style="animation-play-state:paused" ></path>
<path d="M1080 1241L1334 1359L1313 1133z" stroke="#3b1e18" fill="#3b1e18" style="animation-play-state:paused" ></path>
<path d="M1942 833L2006 699L1874 729z" stroke="#a46238" fill="#a46238" style="animation-play-state:paused" ></path>
<path d="M1874 729L2006 699L1845 537z" stroke="#ba7343" fill="#ba7343" style="animation-play-state:paused" ></path>
<path d="M2080 397L1771 275L1845 537z" stroke="#dea66d" fill="#dea66d" style="animation-play-state:paused" ></path>
<path d="M1940 -128L1749 -303L1592 -74z" stroke="#fdf0e3" fill="#fdf0e3" style="animation-play-state:paused" ></path>
<path d="M1707 958L1786 1041L1832 887z" stroke="#763f23" fill="#763f23" style="animation-play-state:paused" ></path>
<path d="M1832 887L1942 833L1874 729z" stroke="#965732" fill="#965732" style="animation-play-state:paused" ></path>
<path d="M1740 1164L1786 1041L1707 958z" stroke="#633320" fill="#633320" style="animation-play-state:paused" ></path>
<path d="M1501 1308L1449 1088L1313 1133z" stroke="#49251b" fill="#49251b" style="animation-play-state:paused" ></path>
<path d="M1995 1087L1942 833L1832 887z" stroke="#7c4325" fill="#7c4325" style="animation-play-state:paused" ></path>
<path d="M1940 -128L1592 -74L1897 3z" stroke="#faecd8" fill="#faecd8" style="animation-play-state:paused" ></path>
<path d="M1609 -269L1749 -303L1040 -265z" stroke="#fff5ee" fill="#fff5ee" style="animation-play-state:paused" ></path>
<path d="M2105 602L2080 397L1845 537z" stroke="#d88e53" fill="#d88e53" style="animation-play-state:paused" ></path>
<path d="M958 1337L1334 1359L1080 1241z" stroke="#2c1713" fill="#2c1713" style="animation-play-state:paused" ></path>
<path d="M1669 1286L1740 1164L1449 1088z" stroke="#48251b" fill="#48251b" style="animation-play-state:paused" ></path>
<path d="M1786 1041L1995 1087L1832 887z" stroke="#6d3a22" fill="#6d3a22" style="animation-play-state:paused" ></path>
<path d="M2001 122L1940 -128L1897 3z" stroke="#f7ead2" fill="#f7ead2" style="animation-play-state:paused" ></path>
<path d="M1944 -286L1940 -128L2244 -197z" stroke="#fef2e6" fill="#fef2e6" style="animation-play-state:paused" ></path>
<path d="M1334 1359L1501 1308L1313 1133z" stroke="#361b16" fill="#361b16" style="animation-play-state:paused" ></path>
<path d="M254 -293L154 -29L370 -1z" stroke="#fbeedd" fill="#fbeedd" style="animation-play-state:paused" ></path>
<path d="M-74 302L74 436L176 381z" stroke="#dfad74" fill="#dfad74" style="animation-play-state:paused" ></path>
<path d="M-31 170L176 381L202 197z" stroke="#e6c797" fill="#e6c797" style="animation-play-state:paused" ></path>
<path d="M176 381L74 436L316 515z" stroke="#dc9d63" fill="#dc9d63" style="animation-play-state:paused" ></path>
<path d="M2216 731L2105 602L2006 699z" stroke="#b56f40" fill="#b56f40" style="animation-play-state:paused" ></path>
<path d="M2006 699L2105 602L1845 537z" stroke="#c37b47" fill="#c37b47" style="animation-play-state:paused" ></path>
<path d="M2259 574L2105 602L2216 731z" stroke="#be7745" fill="#be7745" style="animation-play-state:paused" ></path>
<path d="M483 1041L528 1269L631 1183z" stroke="#4b261c" fill="#4b261c" style="animation-play-state:paused" ></path>
<path d="M362 935L313 1059L483 1041z" stroke="#6c3922" fill="#6c3922" style="animation-play-state:paused" ></path>
<path d="M149 889L362 935L290 680z" stroke="#925430" fill="#925430" style="animation-play-state:paused" ></path>
<path d="M74 436L116 665L316 515z" stroke="#d4894f" fill="#d4894f" style="animation-play-state:paused" ></path>
<path d="M313 1059L528 1269L483 1041z" stroke="#542b1e" fill="#542b1e" style="animation-play-state:paused" ></path>
<path d="M631 1183L528 1269L958 1337z" stroke="#371c17" fill="#371c17" style="animation-play-state:paused" ></path>
<path d="M1501 1308L1669 1286L1449 1088z" stroke="#3e1f19" fill="#3e1f19" style="animation-play-state:paused" ></path>
<path d="M1979 1227L1995 1087L1786 1041z" stroke="#552c1e" fill="#552c1e" style="animation-play-state:paused" ></path>
<path d="M1886 1333L1669 1286L1501 1308z" stroke="#2d1714" fill="#2d1714" style="animation-play-state:paused" ></path>
<path d="M116 665L149 889L290 680z" stroke="#a66339" fill="#a66339" style="animation-play-state:paused" ></path>
<path d="M313 1059L382 1336L528 1269z" stroke="#3f2019" fill="#3f2019" style="animation-play-state:paused" ></path>
<path d="M74 436L47 620L116 665z" stroke="#cc824b" fill="#cc824b" style="animation-play-state:paused" ></path>
<path d="M116 665L33 779L149 889z" stroke="#9e5e36" fill="#9e5e36" style="animation-play-state:paused" ></path>
<path d="M794 -314L254 -293L672 -274z" stroke="#fff6ef" fill="#fff6ef" style="animation-play-state:paused" ></path>
<path d="M512 -249L254 -293L370 -1z" stroke="#fdf1e4" fill="#fdf1e4" style="animation-play-state:paused" ></path>
<path d="M2220 -21L1940 -128L2001 122z" stroke="#f8ead2" fill="#f8ead2" style="animation-play-state:paused" ></path>
<path d="M1940 -128L1944 -286L1749 -303z" stroke="#fef4ea" fill="#fef4ea" style="animation-play-state:paused" ></path>
<path d="M47 620L33 779L116 665z" stroke="#b26d3f" fill="#b26d3f" style="animation-play-state:paused" ></path>
<path d="M1979 1227L1786 1041L1740 1164z" stroke="#50291d" fill="#50291d" style="animation-play-state:paused" ></path>
<path d="M-57 -75L-31 170L154 -29z" stroke="#f6e9cf" fill="#f6e9cf" style="animation-play-state:paused" ></path>
<path d="M154 -29L-31 170L202 197z" stroke="#f0e2c0" fill="#f0e2c0" style="animation-play-state:paused" ></path>
<path d="M74 436L-145 406L47 620z" stroke="#da9458" fill="#da9458" style="animation-play-state:paused" ></path>
<path d="M-293 614L-67 856L33 779z" stroke="#a46339" fill="#a46339" style="animation-play-state:paused" ></path>
<path d="M137 1231L225 1160L24 1149z" stroke="#48251b" fill="#48251b" style="animation-play-state:paused" ></path>
<path d="M149 889L225 1160L313 1059z" stroke="#673621" fill="#673621" style="animation-play-state:paused" ></path>
<path d="M225 1160L382 1336L313 1059z" stroke="#47241b" fill="#47241b" style="animation-play-state:paused" ></path>
<path d="M528 1269L382 1336L958 1337z" stroke="#2c1713" fill="#2c1713" style="animation-play-state:paused" ></path>
<path d="M958 1337L382 1336L1334 1359z" stroke="#261411" fill="#261411" style="animation-play-state:paused" ></path>
<path d="M254 -293L64 -140L154 -29z" stroke="#fdf0e1" fill="#fdf0e1" style="animation-play-state:paused" ></path>
<path d="M2216 731L2006 699L2201 902z" stroke="#9e5e36" fill="#9e5e36" style="animation-play-state:paused" ></path>
<path d="M2105 602L2259 574L2080 397z" stroke="#d78b51" fill="#d78b51" style="animation-play-state:paused" ></path>
<path d="M2080 397L2254 209L2001 122z" stroke="#e7c899" fill="#e7c899" style="animation-play-state:paused" ></path>
<path d="M2291 416L2254 209L2080 397z" stroke="#e1b47d" fill="#e1b47d" style="animation-play-state:paused" ></path>
<path d="M2201 902L2006 699L1942 833z" stroke="#975832" fill="#975832" style="animation-play-state:paused" ></path>
<path d="M-217 159L-74 302L-31 170z" stroke="#e9cea2" fill="#e9cea2" style="animation-play-state:paused" ></path>
<path d="M-31 170L-74 302L176 381z" stroke="#e4bf8d" fill="#e4bf8d" style="animation-play-state:paused" ></path>
<path d="M2259 574L2291 416L2080 397z" stroke="#db995e" fill="#db995e" style="animation-play-state:paused" ></path>
<path d="M1886 1333L1979 1227L1740 1164z" stroke="#3b1e18" fill="#3b1e18" style="animation-play-state:paused" ></path>
<path d="M1995 1087L2201 902L1942 833z" stroke="#7a4325" fill="#7a4325" style="animation-play-state:paused" ></path>
<path d="M2254 209L2220 -21L2001 122z" stroke="#f1e3c3" fill="#f1e3c3" style="animation-play-state:paused" ></path>
<path d="M2386 514L2291 416L2259 574z" stroke="#d99055" fill="#d99055" style="animation-play-state:paused" ></path>
<path d="M2348 873L2201 902L2332 1025z" stroke="#7c4425" fill="#7c4425" style="animation-play-state:paused" ></path>
<path d="M1669 1286L1886 1333L1740 1164z" stroke="#371c17" fill="#371c17" style="animation-play-state:paused" ></path>
<path d="M2246 1130L2201 902L1995 1087z" stroke="#663521" fill="#663521" style="animation-play-state:paused" ></path>
<path d="M1334 1359L1886 1333L1501 1308z" stroke="#281512" fill="#281512" style="animation-play-state:paused" ></path>
<path d="M-74 302L-145 406L74 436z" stroke="#dfab72" fill="#dfab72" style="animation-play-state:paused" ></path>
<path d="M-217 159L-145 406L-74 302z" stroke="#e4be8b" fill="#e4be8b" style="animation-play-state:paused" ></path>
<path d="M2291 416L2329 286L2254 209z" stroke="#e3bb87" fill="#e3bb87" style="animation-play-state:paused" ></path>
<path d="M2474 247L2336 -107L2220 -21z" stroke="#f5e8ce" fill="#f5e8ce" style="animation-play-state:paused" ></path>
<path d="M2386 514L2329 286L2291 416z" stroke="#dda66c" fill="#dda66c" style="animation-play-state:paused" ></path>
<path d="M2386 514L2259 574L2460 801z" stroke="#bf7845" fill="#bf7845" style="animation-play-state:paused" ></path>
<path d="M74 -301L-57 -75L64 -140z" stroke="#fdf1e3" fill="#fdf1e3" style="animation-play-state:paused" ></path>
<path d="M64 -140L-57 -75L154 -29z" stroke="#fbedda" fill="#fbedda" style="animation-play-state:paused" ></path>
<path d="M-293 614L33 779L47 620z" stroke="#b67041" fill="#b67041" style="animation-play-state:paused" ></path>
<path d="M33 779L-67 856L149 889z" stroke="#90532f" fill="#90532f" style="animation-play-state:paused" ></path>
<path d="M225 1160L137 1231L382 1336z" stroke="#3b1e18" fill="#3b1e18" style="animation-play-state:paused" ></path>
<path d="M794 -314L74 -301L254 -293z" stroke="#fff7f0" fill="#fff7f0" style="animation-play-state:paused" ></path>
<path d="M254 -293L74 -301L64 -140z" stroke="#fef4eb" fill="#fef4eb" style="animation-play-state:paused" ></path>
<path d="M2460 801L2259 574L2216 731z" stroke="#af6b3e" fill="#af6b3e" style="animation-play-state:paused" ></path>
<path d="M24 1149L225 1160L149 889z" stroke="#603220" fill="#603220" style="animation-play-state:paused" ></path>
<path d="M2220 -21L2244 -197L1940 -128z" stroke="#fceedd" fill="#fceedd" style="animation-play-state:paused" ></path>
<path d="M2336 -107L2244 -197L2220 -21z" stroke="#fbeedd" fill="#fbeedd" style="animation-play-state:paused" ></path>
<path d="M-67 856L24 1149L149 889z" stroke="#753f23" fill="#753f23" style="animation-play-state:paused" ></path>
<path d="M2474 247L2254 209L2329 286z" stroke="#e6c797" fill="#e6c797" style="animation-play-state:paused" ></path>
<path d="M2474 247L2220 -21L2254 209z" stroke="#eedbb6" fill="#eedbb6" style="animation-play-state:paused" ></path>
<path d="M-244 -39L-217 159L-57 -75z" stroke="#f7e9d0" fill="#f7e9d0" style="animation-play-state:paused" ></path>
<path d="M-57 -75L-217 159L-31 170z" stroke="#f3e7c9" fill="#f3e7c9" style="animation-play-state:paused" ></path>
<path d="M-145 406L-246 476L47 620z" stroke="#d99155" fill="#d99155" style="animation-play-state:paused" ></path>
<path d="M2201 902L2348 873L2216 731z" stroke="#915430" fill="#915430" style="animation-play-state:paused" ></path>
<path d="M2246 1130L1995 1087L2191 1240z" stroke="#4e281d" fill="#4e281d" style="animation-play-state:paused" ></path>
<path d="M-374 348L-246 476L-145 406z" stroke="#dda56b" fill="#dda56b" style="animation-play-state:paused" ></path>
<path d="M-239 1235L31 1323L24 1149z" stroke="#3c1f18" fill="#3c1f18" style="animation-play-state:paused" ></path>
<path d="M2191 1240L1995 1087L1979 1227z" stroke="#47241b" fill="#47241b" style="animation-play-state:paused" ></path>
<path d="M1886 1333L2191 1240L1979 1227z" stroke="#361b16" fill="#361b16" style="animation-play-state:paused" ></path>
<path d="M2379 1248L2332 1025L2246 1130z" stroke="#522a1d" fill="#522a1d" style="animation-play-state:paused" ></path>
<path d="M2246 1130L2332 1025L2201 902z" stroke="#6a3822" fill="#6a3822" style="animation-play-state:paused" ></path>
<path d="M-286 -281L-244 -39L-57 -75z" stroke="#fcefdf" fill="#fcefdf" style="animation-play-state:paused" ></path>
<path d="M-497 429L-293 614L-246 476z" stroke="#d98f54" fill="#d98f54" style="animation-play-state:paused" ></path>
<path d="M2386 514L2474 247L2329 286z" stroke="#e0b27b" fill="#e0b27b" style="animation-play-state:paused" ></path>
<path d="M2460 801L2474 247L2386 514z" stroke="#d88c51" fill="#d88c51" style="animation-play-state:paused" ></path>
<path d="M2460 801L2216 731L2348 873z" stroke="#995a33" fill="#995a33" style="animation-play-state:paused" ></path>
<path d="M-276 1031L24 1149L-67 856z" stroke="#6c3922" fill="#6c3922" style="animation-play-state:paused" ></path>
<path d="M24 1149L31 1323L137 1231z" stroke="#3d1f18" fill="#3d1f18" style="animation-play-state:paused" ></path>
<path d="M137 1231L31 1323L382 1336z" stroke="#301815" fill="#301815" style="animation-play-state:paused" ></path>
<path d="M382 1336L31 1323L1334 1359z" stroke="#271411" fill="#271411" style="animation-play-state:paused" ></path>
<path d="M-374 348L-145 406L-217 159z" stroke="#e3bb87" fill="#e3bb87" style="animation-play-state:paused" ></path>
<path d="M-246 476L-293 614L47 620z" stroke="#cd834c" fill="#cd834c" style="animation-play-state:paused" ></path>
<path d="M2332 1025L2460 801L2348 873z" stroke="#834929" fill="#834929" style="animation-play-state:paused" ></path>
<path d="M2474 247L2416 -197L2336 -107z" stroke="#f8ead4" fill="#f8ead4" style="animation-play-state:paused" ></path>
<path d="M2336 -107L2416 -197L2244 -197z" stroke="#fdf0e3" fill="#fdf0e3" style="animation-play-state:paused" ></path>
<path d="M2244 -197L2416 -197L1944 -286z" stroke="#fef3e9" fill="#fef3e9" style="animation-play-state:paused" ></path>
<path d="M-293 614L-310 800L-67 856z" stroke="#a36138" fill="#a36138" style="animation-play-state:paused" ></path>
<path d="M-328 28L-378 210L-217 159z" stroke="#efdeba" fill="#efdeba" style="animation-play-state:paused" ></path>
<path d="M-293 614L-339 759L-310 800z" stroke="#aa673b" fill="#aa673b" style="animation-play-state:paused" ></path>
<path d="M-407 -226L-328 28L-244 -39z" stroke="#faedda" fill="#faedda" style="animation-play-state:paused" ></path>
<path d="M-244 -39L-328 28L-217 159z" stroke="#f5e8cd" fill="#f5e8cd" style="animation-play-state:paused" ></path>
<path d="M-378 210L-374 348L-217 159z" stroke="#e7c99a" fill="#e7c99a" style="animation-play-state:paused" ></path>
<path d="M-479 835L-339 759L-293 614z" stroke="#a7653a" fill="#a7653a" style="animation-play-state:paused" ></path>
<path d="M-310 800L-276 1031L-67 856z" stroke="#844a29" fill="#844a29" style="animation-play-state:paused" ></path>
<path d="M-479 835L-276 1031L-310 800z" stroke="#864b2a" fill="#864b2a" style="animation-play-state:paused" ></path>
<path d="M74 -301L-286 -281L-57 -75z" stroke="#fef3e8" fill="#fef3e8" style="animation-play-state:paused" ></path>
<path d="M2191 1240L2379 1248L2246 1130z" stroke="#43221a" fill="#43221a" style="animation-play-state:paused" ></path>
<path d="M2332 1025L2379 1248L2460 801z" stroke="#693721" fill="#693721" style="animation-play-state:paused" ></path>
<path d="M1886 1333L2379 1248L2191 1240z" stroke="#341b16" fill="#341b16" style="animation-play-state:paused" ></path>
<path d="M-276 1031L-239 1235L24 1149z" stroke="#51291d" fill="#51291d" style="animation-play-state:paused" ></path>
<path d="M-380 1127L-239 1235L-276 1031z" stroke="#532a1d" fill="#532a1d" style="animation-play-state:paused" ></path>
<path d="M-374 348L-497 429L-246 476z" stroke="#dda369" fill="#dda369" style="animation-play-state:paused" ></path>
<path d="M-339 759L-479 835L-310 800z" stroke="#9a5a33" fill="#9a5a33" style="animation-play-state:paused" ></path>
<path d="M-378 210L-497 429L-374 348z" stroke="#e1b680" fill="#e1b680" style="animation-play-state:paused" ></path>
<path d="M-407 -226L-497 429L-378 210z" stroke="#eeddb8" fill="#eeddb8" style="animation-play-state:paused" ></path>
<path d="M-407 -226L-378 210L-328 28z" stroke="#f7ead1" fill="#f7ead1" style="animation-play-state:paused" ></path>
<path d="M-286 -281L-407 -226L-244 -39z" stroke="#fdf1e4" fill="#fdf1e4" style="animation-play-state:paused" ></path>
<path d="M-497 429L-479 835L-293 614z" stroke="#c07946" fill="#c07946" style="animation-play-state:paused" ></path>
<path d="M-479 835L-380 1127L-276 1031z" stroke="#6f3b22" fill="#6f3b22" style="animation-play-state:paused" ></path>
<path d="M-380 1127L-357 1320L-239 1235z" stroke="#3e1f19" fill="#3e1f19" style="animation-play-state:paused" ></path>
<path d="M-239 1235L-357 1320L31 1323z" stroke="#301915" fill="#301915" style="animation-play-state:paused" ></path>
<path d="M-479 835L-357 1320L-380 1127z" stroke="#5a2e1f" fill="#5a2e1f" style="animation-play-state:paused" ></path></g>
<style type="text/css" style="animation-play-state:paused" >#bk-0.05428145726670619 path { stroke-width: 1 }</style></g></svg>