<?xml version="1.0" encoding="utf-8"?>
<svg xmlns="http://www.w3.org/2000/svg" xmlns:xlink="http://www.w3.org/1999/xlink" style="margin: auto; background-color: rgb(241, 242, 243); display: block; z-index: 1; position: relative; shape-rendering: auto; background-position: initial initial; background-repeat: initial initial;" width="1024" height="720" preserveAspectRatio="xMidYMid" viewBox="0 0 1024 720">
<g transform=""><path d="M-100 45.32C-65.4 41.38 -69.21 40.95 -41.71 40.95S-9.65 11.08 16.57 11.08S50.64 17.55 74.86 17.55S109.55 2.9 133.14 2.9S167.55 20.33 191.43 20.33S222.34 16.38 249.71 16.38S279.1 27.79 308 27.79S338.41 42.84 366.29 42.84S397.94 51.18 424.57 51.18S456.7 43.41 482.86 43.41S515.47 15.36 541.14 15.36S571.26 40.2 599.43 40.2S634.07 18.28 657.71 18.28S692.59 16.2 716 16.2S747.6 44.09 774.29 44.09S806.92 3.12 832.57 3.12S867.36 56.71 890.86 56.71S922.3 49.57 949.14 49.57S980.59 56.92 1007.43 56.92S1036.87 36.9 1065.71 36.9S1096.49 40.18 1124 40.18S1153.33 10.85 1182.29 10.85L1124 720 L-100 720 Z" fill="#e4812f" stroke-width="0">
  <animate attributeName="d" dur="46.15384615384615s" repeatCount="indefinite" values="M-100 45.32C-65.4 41.38 -69.21 40.95 -41.71 40.95S-9.65 11.08 16.57 11.08S50.64 17.55 74.86 17.55S109.55 2.9 133.14 2.9S167.55 20.33 191.43 20.33S222.34 16.38 249.71 16.38S279.1 27.79 308 27.79S338.41 42.84 366.29 42.84S397.94 51.18 424.57 51.18S456.7 43.41 482.86 43.41S515.47 15.36 541.14 15.36S571.26 40.2 599.43 40.2S634.07 18.28 657.71 18.28S692.59 16.2 716 16.2S747.6 44.09 774.29 44.09S806.92 3.12 832.57 3.12S867.36 56.71 890.86 56.71S922.3 49.57 949.14 49.57S980.59 56.92 1007.43 56.92S1036.87 36.9 1065.71 36.9S1096.49 40.18 1124 40.18S1153.33 10.85 1182.29 10.85L1124 720 L-100 720 Z;M-100 18.22C-67.91 11.53 -66.34 49.61 -41.71 49.61S-7.2 7.14 16.57 7.14S45.73 16.18 74.86 16.18S107.04 14.05 133.14 14.05S163.95 16.25 191.43 16.25S222.29 22.6 249.71 22.6S283.86 18.25 308 18.25S342 11.52 366.29 11.52S400.85 17.45 424.57 17.45S455.15 1.89 482.86 1.89S512.48 27.18 541.14 27.18S570.47 50.63 599.43 50.63S633.99 37.28 657.71 37.28S688.94 31.23 716 31.23S750.15 39.58 774.29 39.58S804.49 0.58 832.57 0.58S863.64 24.94 890.86 24.94S921 14.08 949.14 14.08S979.35 50.98 1007.43 50.98S1037.32 46.93 1065.71 46.93S1098.88 52.13 1124 52.13S1154.35 0.09 1182.29 0.09L1124 720 L-100 720 Z;M-100 45.32C-65.4 41.38 -69.21 40.95 -41.71 40.95S-9.65 11.08 16.57 11.08S50.64 17.55 74.86 17.55S109.55 2.9 133.14 2.9S167.55 20.33 191.43 20.33S222.34 16.38 249.71 16.38S279.1 27.79 308 27.79S338.41 42.84 366.29 42.84S397.94 51.18 424.57 51.18S456.7 43.41 482.86 43.41S515.47 15.36 541.14 15.36S571.26 40.2 599.43 40.2S634.07 18.28 657.71 18.28S692.59 16.2 716 16.2S747.6 44.09 774.29 44.09S806.92 3.12 832.57 3.12S867.36 56.71 890.86 56.71S922.3 49.57 949.14 49.57S980.59 56.92 1007.43 56.92S1036.87 36.9 1065.71 36.9S1096.49 40.18 1124 40.18S1153.33 10.85 1182.29 10.85L1124 720 L-100 720 Z"></animate>
  <animateTransform attributeName="transform" type="translate" dur="46.15384615384615s" begin="0s" repeatCount="indefinite" values="0;10;0" calcMode="spline" keySplines="0.3 0 0.7 1;0.3 0 0.7 1"></animateTransform>
</path><path d="M-100 95.84C-64.81 120.41 -65.45 108.3 -39.05 108.3S-6.52 96.15 21.89 96.15S58.1 109.86 82.84 109.86S115.94 108.16 143.78 108.16S176.19 113.95 204.73 113.95S238.04 76.02 265.68 76.02S300.73 124.36 326.62 124.36S361.61 77.76 387.57 77.76S418.55 75.41 448.51 75.41S483.97 102.94 509.46 102.94S541.83 95.89 570.41 95.89S603.84 100.68 631.35 100.68S663.72 94.15 692.3 94.15S725.61 115.33 753.24 115.33S786.13 112.47 814.19 112.47S847.52 115.05 875.14 115.05S907.71 128.01 936.08 128.01S969.27 114.05 997.03 114.05S1027.74 74.06 1057.98 74.06S1092.22 95.87 1118.92 95.87S1153.97 117.16 1179.87 117.16L1124 720 L-100 720 Z" fill="#e8964d" stroke-width="0">
  <animate attributeName="d" dur="38.46153846153846s" repeatCount="indefinite" values="M-100 95.84C-64.81 120.41 -65.45 108.3 -39.05 108.3S-6.52 96.15 21.89 96.15S58.1 109.86 82.84 109.86S115.94 108.16 143.78 108.16S176.19 113.95 204.73 113.95S238.04 76.02 265.68 76.02S300.73 124.36 326.62 124.36S361.61 77.76 387.57 77.76S418.55 75.41 448.51 75.41S483.97 102.94 509.46 102.94S541.83 95.89 570.41 95.89S603.84 100.68 631.35 100.68S663.72 94.15 692.3 94.15S725.61 115.33 753.24 115.33S786.13 112.47 814.19 112.47S847.52 115.05 875.14 115.05S907.71 128.01 936.08 128.01S969.27 114.05 997.03 114.05S1027.74 74.06 1057.98 74.06S1092.22 95.87 1118.92 95.87S1153.97 117.16 1179.87 117.16L1124 720 L-100 720 Z;M-100 94.99C-63.84 116.84 -67.85 125.59 -39.05 125.59S-3.41 89.88 21.89 89.88S57.64 79.21 82.84 79.21S113.68 78.21 143.78 78.21S174.61 89.22 204.73 89.22S239.98 99.06 265.68 99.06S296.92 115.52 326.62 115.52S358.72 99.61 387.57 99.61S423.34 114.96 448.51 114.96S480.1 98.71 509.46 98.71S540.39 93.48 570.41 93.48S602.26 119.19 631.35 119.19S666.49 110.95 692.3 110.95S722.96 90.89 753.24 90.89S784 119.36 814.19 119.36S848.73 111.97 875.14 111.97S905.96 110.78 936.08 110.78S968.8 98.28 997.03 98.28S1032.64 98.94 1057.98 98.94S1090.29 113.9 1118.92 113.9S1149.88 83.34 1179.87 83.34L1124 720 L-100 720 Z;M-100 95.84C-64.81 120.41 -65.45 108.3 -39.05 108.3S-6.52 96.15 21.89 96.15S58.1 109.86 82.84 109.86S115.94 108.16 143.78 108.16S176.19 113.95 204.73 113.95S238.04 76.02 265.68 76.02S300.73 124.36 326.62 124.36S361.61 77.76 387.57 77.76S418.55 75.41 448.51 75.41S483.97 102.94 509.46 102.94S541.83 95.89 570.41 95.89S603.84 100.68 631.35 100.68S663.72 94.15 692.3 94.15S725.61 115.33 753.24 115.33S786.13 112.47 814.19 112.47S847.52 115.05 875.14 115.05S907.71 128.01 936.08 128.01S969.27 114.05 997.03 114.05S1027.74 74.06 1057.98 74.06S1092.22 95.87 1118.92 95.87S1153.97 117.16 1179.87 117.16L1124 720 L-100 720 Z"></animate>
  <animateTransform attributeName="transform" type="translate" dur="38.46153846153846s" begin="-6.41025641025641s" repeatCount="indefinite" values="0;10;0" calcMode="spline" keySplines="0.3 0 0.7 1;0.3 0 0.7 1"></animateTransform>
</path><path d="M-100 146.99C-67.96 170.3 -67.75 193.87 -36.14 193.87S-2.98 155.93 27.72 155.93S64.75 160.23 91.58 160.23S126.95 182.88 155.44 182.88S193.02 164.28 219.3 164.28S254.48 149.83 283.17 149.83S319.69 194.02 347.03 194.02S384.26 184.17 410.89 184.17S445.69 152.74 474.75 152.74S508.39 188.78 538.61 188.78S572.01 197.78 602.47 197.78S637.94 155.78 666.33 155.78S701.19 156.55 730.19 156.55S767.47 179.69 794.05 179.69S831.21 189.91 857.91 189.91S895.24 159.31 921.77 159.31S954.39 182.53 985.63 182.53S1023.32 185.35 1049.5 185.35S1086.61 197.72 1113.36 197.72S1149.12 164.34 1177.22 164.34L1124 720 L-100 720 Z" fill="#eba96b" stroke-width="0">
  <animate attributeName="d" dur="30.769230769230766s" repeatCount="indefinite" values="M-100 146.99C-67.96 170.3 -67.75 193.87 -36.14 193.87S-2.98 155.93 27.72 155.93S64.75 160.23 91.58 160.23S126.95 182.88 155.44 182.88S193.02 164.28 219.3 164.28S254.48 149.83 283.17 149.83S319.69 194.02 347.03 194.02S384.26 184.17 410.89 184.17S445.69 152.74 474.75 152.74S508.39 188.78 538.61 188.78S572.01 197.78 602.47 197.78S637.94 155.78 666.33 155.78S701.19 156.55 730.19 156.55S767.47 179.69 794.05 179.69S831.21 189.91 857.91 189.91S895.24 159.31 921.77 159.31S954.39 182.53 985.63 182.53S1023.32 185.35 1049.5 185.35S1086.61 197.72 1113.36 197.72S1149.12 164.34 1177.22 164.34L1124 720 L-100 720 Z;M-100 160.11C-66.69 157.12 -65.31 165.12 -36.14 165.12S1.47 181.98 27.72 181.98S63.85 164.4 91.58 164.4S127.65 135.52 155.44 135.52S187.54 169.37 219.3 169.37S254.94 167.6 283.17 167.6S319.26 162.29 347.03 162.29S384.11 153.75 410.89 153.75S445.12 195.71 474.75 195.71S507.54 181.92 538.61 181.92S575.29 188.21 602.47 188.21S637.55 183.66 666.33 183.66S699.92 197.55 730.19 197.55S762.8 167.96 794.05 167.96S826.31 147.5 857.91 147.5S890.5 165.69 921.77 165.69S958.5 161.66 985.63 161.66S1018.75 156.72 1049.5 156.72S1086.7 145.47 1113.36 145.47S1150.09 184.8 1177.22 184.8L1124 720 L-100 720 Z;M-100 146.99C-67.96 170.3 -67.75 193.87 -36.14 193.87S-2.98 155.93 27.72 155.93S64.75 160.23 91.58 160.23S126.95 182.88 155.44 182.88S193.02 164.28 219.3 164.28S254.48 149.83 283.17 149.83S319.69 194.02 347.03 194.02S384.26 184.17 410.89 184.17S445.69 152.74 474.75 152.74S508.39 188.78 538.61 188.78S572.01 197.78 602.47 197.78S637.94 155.78 666.33 155.78S701.19 156.55 730.19 156.55S767.47 179.69 794.05 179.69S831.21 189.91 857.91 189.91S895.24 159.31 921.77 159.31S954.39 182.53 985.63 182.53S1023.32 185.35 1049.5 185.35S1086.61 197.72 1113.36 197.72S1149.12 164.34 1177.22 164.34L1124 720 L-100 720 Z"></animate>
  <animateTransform attributeName="transform" type="translate" dur="30.769230769230766s" begin="-10.256410256410255s" repeatCount="indefinite" values="0;10;0" calcMode="spline" keySplines="0.3 0 0.7 1;0.3 0 0.7 1"></animateTransform>
</path><path d="M-100 199.93C-64.19 245.93 -66.14 230.09 -32.93 230.09S2.75 206.22 34.14 206.22S68.13 239.98 101.21 239.98S140.04 206.82 168.27 206.82S202.2 231.12 235.34 231.12S269.17 247.23 302.41 247.23S337.5 269.21 369.48 269.21S406.63 201.71 436.55 201.71S470.1 263.32 503.62 263.32S541.4 227.73 570.68 227.73S606.83 270.66 637.75 270.66S674.56 240.39 704.82 240.39S740.68 241.12 771.89 241.12S809.94 198.33 838.96 198.33S877.8 236.73 906.03 236.73S941.54 224.53 973.1 224.53S1008.25 221.59 1040.16 221.59S1074.42 205.89 1107.23 205.89S1143.8 261.1 1174.3 261.1L1124 720 L-100 720 Z" fill="#efbc89" stroke-width="0">
  <animate attributeName="d" dur="23.076923076923077s" repeatCount="indefinite" values="M-100 199.93C-64.19 245.93 -66.14 230.09 -32.93 230.09S2.75 206.22 34.14 206.22S68.13 239.98 101.21 239.98S140.04 206.82 168.27 206.82S202.2 231.12 235.34 231.12S269.17 247.23 302.41 247.23S337.5 269.21 369.48 269.21S406.63 201.71 436.55 201.71S470.1 263.32 503.62 263.32S541.4 227.73 570.68 227.73S606.83 270.66 637.75 270.66S674.56 240.39 704.82 240.39S740.68 241.12 771.89 241.12S809.94 198.33 838.96 198.33S877.8 236.73 906.03 236.73S941.54 224.53 973.1 224.53S1008.25 221.59 1040.16 221.59S1074.42 205.89 1107.23 205.89S1143.8 261.1 1174.3 261.1L1124 720 L-100 720 Z;M-100 199.18C-64.63 245.34 -65.95 245.75 -32.93 245.75S4.51 223.47 34.14 223.47S69.02 266.39 101.21 266.39S138.24 241.93 168.27 241.93S205.06 250.08 235.34 250.08S268.97 230.48 302.41 230.48S340.58 234.55 369.48 234.55S404.39 254.94 436.55 254.94S471.93 254.58 503.62 254.58S540.75 212.18 570.68 212.18S607.16 239.41 637.75 239.41S672.49 247.85 704.82 247.85S743.58 216.94 771.89 216.94S810.24 227.81 838.96 227.81S873.28 237.47 906.03 237.47S944.59 206.45 973.1 206.45S1006.96 259.52 1040.16 259.52S1079.42 227.37 1107.23 227.37S1142.52 241.62 1174.3 241.62L1124 720 L-100 720 Z;M-100 199.93C-64.19 245.93 -66.14 230.09 -32.93 230.09S2.75 206.22 34.14 206.22S68.13 239.98 101.21 239.98S140.04 206.82 168.27 206.82S202.2 231.12 235.34 231.12S269.17 247.23 302.41 247.23S337.5 269.21 369.48 269.21S406.63 201.71 436.55 201.71S470.1 263.32 503.62 263.32S541.4 227.73 570.68 227.73S606.83 270.66 637.75 270.66S674.56 240.39 704.82 240.39S740.68 241.12 771.89 241.12S809.94 198.33 838.96 198.33S877.8 236.73 906.03 236.73S941.54 224.53 973.1 224.53S1008.25 221.59 1040.16 221.59S1074.42 205.89 1107.23 205.89S1143.8 261.1 1174.3 261.1L1124 720 L-100 720 Z"></animate>
  <animateTransform attributeName="transform" type="translate" dur="23.076923076923077s" begin="-11.538461538461538s" repeatCount="indefinite" values="0;10;0" calcMode="spline" keySplines="0.3 0 0.7 1;0.3 0 0.7 1"></animateTransform>
</path><path d="M-100 327.84C-61.14 293.87 -60.36 290.46 -29.38 290.46S11.16 272.45 41.23 272.45S81.76 337.79 111.85 337.79S149.27 306.4 182.46 306.4S219.43 271.7 253.08 271.7S290.85 285.87 323.69 285.87S362.05 328.76 394.31 328.76S433.49 312.17 464.92 312.17S503.3 284.11 535.54 284.11S573.35 308.99 606.15 308.99S646.23 296.54 676.77 296.54S717.08 284.83 747.38 284.83S784.25 343.81 818 343.81S853.8 305.94 888.62 305.94S928.16 341.63 959.23 341.63S997.92 307.03 1029.85 307.03S1068.12 327.86 1100.46 327.86S1137.99 281.28 1171.08 281.28L1124 720 L-100 720 Z" fill="#f2cea9" stroke-width="0">
  <animate attributeName="d" dur="15.384615384615383s" repeatCount="indefinite" values="M-100 327.84C-61.14 293.87 -60.36 290.46 -29.38 290.46S11.16 272.45 41.23 272.45S81.76 337.79 111.85 337.79S149.27 306.4 182.46 306.4S219.43 271.7 253.08 271.7S290.85 285.87 323.69 285.87S362.05 328.76 394.31 328.76S433.49 312.17 464.92 312.17S503.3 284.11 535.54 284.11S573.35 308.99 606.15 308.99S646.23 296.54 676.77 296.54S717.08 284.83 747.38 284.83S784.25 343.81 818 343.81S853.8 305.94 888.62 305.94S928.16 341.63 959.23 341.63S997.92 307.03 1029.85 307.03S1068.12 327.86 1100.46 327.86S1137.99 281.28 1171.08 281.28L1124 720 L-100 720 Z;M-100 304.7C-64.52 292.96 -60.96 328.51 -29.38 328.51S10.55 287.67 41.23 287.67S76.58 304.98 111.85 304.98S151.95 297.63 182.46 297.63S222.31 314.01 253.08 314.01S290.1 311.14 323.69 311.14S362.93 297.71 394.31 297.71S434.07 267.66 464.92 267.66S505.58 285.69 535.54 285.69S571.65 292.83 606.15 292.83S645.79 302.28 676.77 302.28S717.36 312.15 747.38 312.15S785.68 309.07 818 309.07S853.39 284.19 888.62 284.19S926.22 294.21 959.23 294.21S996.87 288.77 1029.85 288.77S1068.08 267.42 1100.46 267.42S1138.33 320.12 1171.08 320.12L1124 720 L-100 720 Z;M-100 327.84C-61.14 293.87 -60.36 290.46 -29.38 290.46S11.16 272.45 41.23 272.45S81.76 337.79 111.85 337.79S149.27 306.4 182.46 306.4S219.43 271.7 253.08 271.7S290.85 285.87 323.69 285.87S362.05 328.76 394.31 328.76S433.49 312.17 464.92 312.17S503.3 284.11 535.54 284.11S573.35 308.99 606.15 308.99S646.23 296.54 676.77 296.54S717.08 284.83 747.38 284.83S784.25 343.81 818 343.81S853.8 305.94 888.62 305.94S928.16 341.63 959.23 341.63S997.92 307.03 1029.85 307.03S1068.12 327.86 1100.46 327.86S1137.99 281.28 1171.08 281.28L1124 720 L-100 720 Z"></animate>
  <animateTransform attributeName="transform" type="translate" dur="15.384615384615383s" begin="-10.256410256410255s" repeatCount="indefinite" values="0;10;0" calcMode="spline" keySplines="0.3 0 0.7 1;0.3 0 0.7 1"></animateTransform>
</path><path d="M-100 368.23C-57.34 385.07 -61.53 387.49 -25.44 387.49S14.11 362.18 49.12 362.18S86.86 391.64 123.68 391.64S164.21 332.79 198.23 332.79S241.05 382.27 272.79 382.27S311.64 348.07 347.35 348.07S385.87 370.03 421.91 370.03S461 360.06 496.47 360.06S534.79 385.62 571.03 385.62S613.33 354.57 645.58 354.57S685.28 390.28 720.14 390.28S762.75 410.02 794.7 410.02S835 404.54 869.26 404.54S907.22 415.25 943.82 415.25S984.97 364.75 1018.38 364.75S1060.57 346.35 1092.93 346.35S1130.45 375.7 1167.49 375.7L1124 720 L-100 720 Z" fill="#f4e0ca" stroke-width="0">
  <animate attributeName="d" dur="7.692307692307692s" repeatCount="indefinite" values="M-100 368.23C-57.34 385.07 -61.53 387.49 -25.44 387.49S14.11 362.18 49.12 362.18S86.86 391.64 123.68 391.64S164.21 332.79 198.23 332.79S241.05 382.27 272.79 382.27S311.64 348.07 347.35 348.07S385.87 370.03 421.91 370.03S461 360.06 496.47 360.06S534.79 385.62 571.03 385.62S613.33 354.57 645.58 354.57S685.28 390.28 720.14 390.28S762.75 410.02 794.7 410.02S835 404.54 869.26 404.54S907.22 415.25 943.82 415.25S984.97 364.75 1018.38 364.75S1060.57 346.35 1092.93 346.35S1130.45 375.7 1167.49 375.7L1124 720 L-100 720 Z;M-100 372.13C-62.13 384.4 -57.02 404.6 -25.44 404.6S14.29 381.93 49.12 381.93S88.86 334.98 123.68 334.98S163.89 379 198.23 379S237.63 387.05 272.79 387.05S314.06 382.93 347.35 382.93S388.32 394.98 421.91 394.98S463.95 381.81 496.47 381.81S538.74 344.78 571.03 344.78S610.53 376.34 645.58 376.34S687.73 373.67 720.14 373.67S761.93 353.05 794.7 353.05S833.19 371.12 869.26 371.12S910.75 387.41 943.82 387.41S982.45 357.75 1018.38 357.75S1055.83 387.06 1092.93 387.06S1132.13 408.93 1167.49 408.93L1124 720 L-100 720 Z;M-100 368.23C-57.34 385.07 -61.53 387.49 -25.44 387.49S14.11 362.18 49.12 362.18S86.86 391.64 123.68 391.64S164.21 332.79 198.23 332.79S241.05 382.27 272.79 382.27S311.64 348.07 347.35 348.07S385.87 370.03 421.91 370.03S461 360.06 496.47 360.06S534.79 385.62 571.03 385.62S613.33 354.57 645.58 354.57S685.28 390.28 720.14 390.28S762.75 410.02 794.7 410.02S835 404.54 869.26 404.54S907.22 415.25 943.82 415.25S984.97 364.75 1018.38 364.75S1060.57 346.35 1092.93 346.35S1130.45 375.7 1167.49 375.7L1124 720 L-100 720 Z"></animate>
  <animateTransform attributeName="transform" type="translate" dur="7.692307692307692s" begin="-6.41025641025641s" repeatCount="indefinite" values="0;10;0" calcMode="spline" keySplines="0.3 0 0.7 1;0.3 0 0.7 1"></animateTransform>
</path></g>
</svg>